<svg xmlns="http://www.w3.org/2000/svg" version="1.1" xmlns:xlink="http://www.w3.org/1999/xlink" xmlns:svgjs="http://svgjs.com/svgjs" x="0" y="0" viewBox="0 0 180.622 180.622" style="enable-background:new 0 0 512 512" xml:space="preserve" class=""><g><path d="M41.218 30.311a10.91 10.91 0 0 0-7.712 3.197 10.91 10.91 0 0 0 0 15.425l41.378 41.38-41.378 41.377a10.91 10.91 0 0 0 0 15.427 10.91 10.91 0 0 0 15.426 0l41.38-41.379 41.378 41.38a10.91 10.91 0 0 0 15.426 0 10.91 10.91 0 0 0 0-15.428l-41.379-41.377 41.38-41.38a10.91 10.91 0 0 0 0-15.425 10.91 10.91 0 0 0-7.713-3.197 10.91 10.91 0 0 0-7.714 3.197L90.312 74.887l-41.38-41.38a10.91 10.91 0 0 0-7.714-3.196z" fill="#000000" data-original="#000000" class=""></path></g></svg>